<?xml version="1.0" encoding="UTF-8"?>
<svg id="_レイヤー_1" data-name="レイヤー_1" xmlns="http://www.w3.org/2000/svg" xmlns:xlink="http://www.w3.org/1999/xlink" version="1.1" viewBox="0 0 1148.54 354.65">
  <!-- Generator: Adobe Illustrator 30.2.1, SVG Export Plug-In . SVG Version: 2.1.1 Build 1)  -->
  <defs>
    <style>
      .st0, .st1 {
        fill: none;
      }

      .st2, .st3, .st4, .st5 {
        isolation: isolate;
      }

      .st1 {
        stroke: #231815;
        stroke-miterlimit: 10;
      }

      .st6 {
        fill: url(#_名称未設定グラデーション_2);
      }

      .st3 {
        letter-spacing: -.03em;
      }

      .st3, .st4, .st5 {
        fill: #231815;
        font-family: Fontella, Fontella;
        font-size: 60.35px;
      }

      .st4 {
        letter-spacing: -.03em;
      }

      .st7 {
        fill: url(#_名称未設定グラデーション);
      }

      .st8 {
        display: none;
      }
    </style>
    <linearGradient id="_名称未設定グラデーション" data-name="名称未設定グラデーション" x1="24.69" y1="150.64" x2="543.63" y2="150.64" gradientTransform="translate(0 290.63) scale(1 -1)" gradientUnits="userSpaceOnUse">
      <stop offset="0" stop-color="#231815"/>
      <stop offset="0" stop-color="#e60012"/>
      <stop offset="1" stop-color="#f39800"/>
    </linearGradient>
    <linearGradient id="_名称未設定グラデーション_2" data-name="名称未設定グラデーション 2" x1="548.85" y1="143.65" x2="1130.02" y2="143.65" gradientTransform="translate(0 290.63) scale(1 -1)" gradientUnits="userSpaceOnUse">
      <stop offset="0" stop-color="#231815"/>
      <stop offset="0" stop-color="#e60012"/>
      <stop offset="1" stop-color="#f39800"/>
    </linearGradient>
  </defs>
  <g id="_レイヤー_11" data-name="_レイヤー_1">
    <path class="st7" d="M266.35,70.53c4.09,0,7.44,1.44,10.05,4.32,2.6,2.89,3.61,6.28,3.04,10.18l-1.73,11.7c-.58,3.9-2.59,7.29-6.04,10.18-3.46,2.89-7.23,4.33-11.32,4.33h-71.32c-1.6,0-2.33.68-2.17,2.03,1.29,21.37,7.34,40.11,18.14,56.22,10.8,16.12,26.66,30.45,47.61,43,3.28,1.87,5.1,4.67,5.44,8.39.34,3.73-.88,7.12-3.64,10.18l-12.41,13.48c-3.17,3.39-6.93,5.6-11.26,6.61-4.34,1.02-8.22.51-11.66-1.53-14.7-8.99-27.76-20.65-39.18-34.98-11.42-14.33-20.38-30.23-26.88-47.7-.56-1.02-1.28-1.02-2.14,0-12.22,17.64-26.52,33.63-42.88,47.96-16.37,14.33-33.67,25.99-51.92,34.98-4.22,2.03-8.3,2.5-12.23,1.4-3.94-1.1-6.98-3.35-9.15-6.74l-8.43-13.48c-1.87-3.05-2.08-6.44-.63-10.18,1.44-3.73,3.99-6.53,7.65-8.39,24.65-12.55,44.8-26.88,60.45-43,15.64-16.11,27.28-34.85,34.89-56.22.56-1.36.03-2.03-1.57-2.03H55.74c-4.1,0-7.45-1.44-10.05-4.33-2.6-2.88-3.61-6.27-3.04-10.18l1.73-11.7c.58-3.9,2.59-7.29,6.04-10.18,3.45-2.88,7.22-4.32,11.32-4.32h74.53c1.6,0,2.52-.76,2.74-2.29l4.66-31.55c.58-3.9,2.59-7.29,6.04-10.18,3.45-2.88,7.23-4.32,11.32-4.32h20.3c4.09,0,7.44,1.44,10.05,4.32,2.6,2.89,3.61,6.28,3.04,10.18l-4.66,31.55c-.23,1.53.46,2.29,2.07,2.29h74.53,0ZM536.79,85.36c3.46,1.87,5.62,4.71,6.49,8.52.86,3.82.12,7.59-2.21,11.32l-6.8,11.7c-2.15,3.73-5.29,6.28-9.41,7.63-4.12,1.36-7.91,1.11-11.37-.76-8.46-4.24-16.01-8.56-22.66-12.97-.33-.17-.75-.08-1.24.25-.5.34-.77.68-.82,1.02-.58,3.9-2.54,7.25-5.89,10.05s-7.08,4.2-11.17,4.2h-119.67c-4.1,0-7.41-1.4-9.93-4.2-2.53-2.8-3.5-6.15-2.92-10.05.08-.51-.09-.89-.5-1.15-.41-.25-.82-.21-1.22.13-8.87,4.58-17.69,8.82-26.45,12.72-4.02,1.87-7.89,2.12-11.6.76-3.72-1.36-6.1-3.9-7.15-7.63l-3.35-11.7c-1.23-3.73-.85-7.51,1.14-11.32,1.99-3.82,4.99-6.65,9.01-8.52,31.81-15.26,59.75-32.56,83.8-51.9,8.48-6.78,17.62-10.18,27.41-10.18h33.66c9.79,0,17.93,3.39,24.41,10.18,18.33,19.33,41.16,36.63,68.46,51.9h-.02ZM512.29,139.04c4.09,0,7.44,1.44,10.05,4.32,2.6,2.89,3.61,6.28,3.04,10.18l-1.35,9.16c-.58,3.9-2.59,7.29-6.04,10.18-3.46,2.89-7.23,4.33-11.32,4.33h-12.02c-1.6,0-2.15.68-1.64,2.03,5.79,17.47,11.5,36.04,17.15,55.72,1.08,3.56.51,7.08-1.69,10.56-2.21,3.47-5.36,5.81-9.45,7l-15.9,4.58c-4.27,1.18-8.23.85-11.87-1.02-3.64-1.87-5.99-4.67-7.04-8.4-.1-.51-.32-1.44-.66-2.8-.33-1.36-.63-2.38-.88-3.05-.31-1.53-1.2-2.12-2.67-1.78-52.93,5.09-105.71,8.56-158.35,10.43-4.12.17-7.54-1.14-10.24-3.94-2.7-2.8-3.95-6.15-3.72-10.05l.82-9.16c.22-3.9,1.93-7.33,5.13-10.3s6.86-4.54,10.98-4.71l20.95-.76c1.42,0,2.68-.68,3.77-2.03,5.78-7.8,12.97-17.89,21.57-30.27.91-1.36.57-2.03-1.04-2.03h-47.82c-4.1,0-7.45-1.44-10.05-4.33-2.6-2.88-3.61-6.27-3.04-10.18l1.35-9.16c.58-3.9,2.59-7.29,6.04-10.18,3.45-2.88,7.23-4.32,11.32-4.32h204.62v-.02ZM456.16,91.87c.34,0,.61-.12.82-.36.2-.24.16-.52-.13-.85-11.95-9.85-22.98-20.67-33.11-32.47-.87-.97-1.89-.97-3.05,0-13.62,11.79-27.85,22.62-42.7,32.47-.39.33-.51.61-.38.85.13.24.37.36.71.36h77.85,0ZM477.28,176.18c.02-.16-.03-.4-.15-.73h-69.2c-1.53,0-2.63.57-3.3,1.7-5.73,8.88-11.59,17.61-17.6,26.17-.39.33-.48.69-.29,1.09.19.41.55.61,1.06.61,27.54-1.61,47.67-2.99,60.4-4.12.51,0,.93-.24,1.25-.73.33-.49.35-.97.09-1.45l-.37-.97c-1.03-3.39-.49-6.74,1.61-10.05,2.1-3.31,5.1-5.53,9-6.66l17.51-4.85h0Z"/>
    <path class="st6" d="M986.91,40.02h-111.75c-25.68,0-49.58,17.38-56.64,40l48.66,28.84c4.72-9.8,15.72-16.94,27.46-16.94h56.86c14.34,0,24.33,10.66,22.32,23.8l-9.2,59.92c-2.02,13.15-15.28,23.8-29.62,23.8h-56.86c-9.74,0-17.47-4.93-20.79-12.2l-58.47,30.29c3.14,19.53,20.57,33.81,43.85,33.81h111.75c28.19,0,54.26-20.94,58.22-46.78l18.08-117.77c3.97-25.84-15.67-46.78-43.86-46.78h0ZM780.12,174.3h16.81l-5.03,32.79,119.86-57.2-102.04-58.9-5.29,34.48h-116.61l-7.5,48.83h41.77l-4.69,29.83h-81.12c-19.46,0-33.78-18.23-29.17-37.13l12.12-49.72c4.57-18.74,21.36-31.93,40.66-31.93h138.14l7.46-45.32h-143.22c-50.78,0-94.08,17.44-104.46,85.06l-7.49,48.82c-8.1,38.79,18.19,77.45,57.82,77.45h160.16l11.83-77.05h-.01ZM1082.23,45.29c-4.28,0-8.2,1.62-11.74,4.86-3.55,3.24-5.61,7.05-6.19,11.43l-12.13,107.47c-.43,4.57.66,8.43,3.28,11.58,2.61,3.14,6.15,4.72,10.62,4.72h18.42c4.47,0,8.55-1.57,12.27-4.72,3.71-3.14,6.16-7,7.33-11.58l25.53-107.47c.95-4.38.22-8.19-2.18-11.43-2.41-3.24-5.76-4.86-10.04-4.86h-35.17ZM1059.26,208.22c-4.28,0-8.29,1.62-12.02,4.86s-5.98,7.05-6.75,11.43l-2.3,13.15c-.77,4.39.14,8.19,2.74,11.43,2.59,3.24,6.03,4.86,10.31,4.86h24.01c4.28,0,8.28-1.62,12.02-4.86,3.73-3.24,5.98-7.05,6.75-11.43l2.3-13.15c.77-4.38-.15-8.19-2.74-11.43-2.6-3.24-6.04-4.86-10.31-4.86h-24.01Z"/>
  </g>
  <g id="_レイヤー_2">
    <g class="st2">
      <text class="st4" transform="translate(45.88 321.65)"><tspan x="0" y="0">Spo</tspan></text>
      <text class="st5" transform="translate(166.7 321.65)"><tspan x="0" y="0">rts </tspan></text>
      <text class="st3" transform="translate(272.19 321.65)"><tspan x="0" y="0">Tourna</tspan></text>
      <text class="st5" transform="translate(501.4 321.65)"><tspan x="0" y="0">ment </tspan></text>
      <text class="st3" transform="translate(673.69 321.65)"><tspan x="0" y="0">Mana</tspan></text>
      <text class="st5" transform="translate(860.05 321.65)"><tspan x="0" y="0">gement</tspan></text>
    </g>
    <rect class="st0" width="1148.54" height="354.65"/>
  </g>
  <g id="_レイヤー_5" class="st8">
    <rect class="st0" x="5.32" y="-5.86" width="1148.54" height="291.37"/>
  </g>
  <g id="_レイヤー_4" class="st8">
    <line class="st1" x1="1086.65" y1="-293.31" x2="980.3" y2="399.54"/>
    <line class="st1" x1="1148.4" y1="-293.31" x2="1042.05" y2="399.54"/>
    <line class="st1" x1="851.85" y1="-293.31" x2="745.5" y2="399.54"/>
    <line class="st1" x1="834.15" y1="-293.31" x2="727.8" y2="399.54"/>
    <line class="st1" x1="773.07" y1="-293.31" x2="666.72" y2="399.54"/>
    <line class="st1" x1="602.7" y1="-293.31" x2="496.35" y2="399.54"/>
    <line class="st1" x1="729.1" y1="-293.31" x2="622.75" y2="399.54"/>
    <line class="st1" x1="592.19" y1="-293.31" x2="485.84" y2="399.54"/>
    <line class="st1" x1="476" y1="-293.31" x2="369.65" y2="399.54"/>
    <line class="st1" x1="222.9" y1="-293.31" x2="116.56" y2="399.54"/>
    <line class="st1" x1="-156.77" y1="137.18" x2="1278.04" y2="137.18"/>
    <line class="st1" x1="-156.77" y1="17.14" x2="1278.04" y2="17.14"/>
    <line class="st1" x1="-156.77" y1="257.21" x2="1278.04" y2="257.21"/>
    <line class="st1" x1="-156.77" y1="34.76" x2="1278.04" y2="34.76"/>
  </g>
</svg>