<?xml version="1.0" encoding="UTF-8"?>
<svg id="_レイヤー_2" data-name="レイヤー 2" xmlns="http://www.w3.org/2000/svg" xmlns:xlink="http://www.w3.org/1999/xlink" viewBox="0 0 1113.79 329.5">
  <defs>
    <style>
      .cls-1, .cls-2, .cls-3, .cls-4, .cls-5, .cls-6 {
        fill: none;
      }

      .cls-7 {
        fill: #f8efb7;
      }

      .cls-2 {
        stroke: #f9edb5;
      }

      .cls-2, .cls-3, .cls-4, .cls-5, .cls-6 {
        stroke-linecap: round;
        stroke-linejoin: round;
      }

      .cls-2, .cls-4 {
        stroke-width: 2.89px;
      }

      .cls-8 {
        fill: #ebcb43;
      }

      .cls-3 {
        stroke: #321909;
      }

      .cls-3, .cls-6 {
        stroke-width: 2.17px;
      }

      .cls-9 {
        fill: url(#_名称未設定グラデーション_35-4);
      }

      .cls-10 {
        fill: url(#_名称未設定グラデーション_35-2);
      }

      .cls-11 {
        fill: url(#_名称未設定グラデーション_35-3);
      }

      .cls-12 {
        fill: #331908;
      }

      .cls-4 {
        stroke: #30190b;
      }

      .cls-13 {
        fill: #fff;
      }

      .cls-5 {
        stroke: #050101;
        stroke-width: 4px;
      }

      .cls-14 {
        fill: #d3a858;
      }

      .cls-6 {
        stroke: #311809;
      }

      .cls-15 {
        fill: #2e1507;
      }

      .cls-16 {
        fill: #dcbf3e;
      }

      .cls-17 {
        fill: url(#_名称未設定グラデーション_35);
      }
    </style>
    <linearGradient id="_名称未設定グラデーション_35" data-name="名称未設定グラデーション 35" x1="700.58" y1="167.2" x2="987.45" y2="167.2" gradientUnits="userSpaceOnUse">
      <stop offset="0" stop-color="#fff"/>
      <stop offset="0" stop-color="#00afe5"/>
      <stop offset=".5" stop-color="#c4d700"/>
      <stop offset="1" stop-color="#ffd900"/>
    </linearGradient>
    <linearGradient id="_名称未設定グラデーション_35-2" data-name="名称未設定グラデーション 35" x1="468.94" x2="880.02" xlink:href="#_名称未設定グラデーション_35"/>
    <linearGradient id="_名称未設定グラデーション_35-3" data-name="名称未設定グラデーション 35" x1="241.56" y1="164.21" x2="522.22" y2="164.21" xlink:href="#_名称未設定グラデーション_35"/>
    <linearGradient id="_名称未設定グラデーション_35-4" data-name="名称未設定グラデーション 35" x1="8.91" y1="164.21" x2="285.95" y2="164.21" xlink:href="#_名称未設定グラデーション_35"/>
  </defs>
  <g id="textなし">
    <g>
      <g>
        <g>
          <path class="cls-13" d="M929.44,40.9h-126.31c-34.88,0-68.14,28.27-74.29,63.15l-22.27,126.31c-6.15,34.88,17.14,63.15,52.02,63.15h126.31c34.88,0,68.14-28.27,74.29-63.15l22.27-126.31c6.15-34.88-17.14-63.15-52.02-63.15ZM900.49,205.1c-2.46,13.95-15.76,25.26-29.72,25.26h-75.78c-13.95,0-23.27-11.31-20.81-25.26l13.36-75.78c2.46-13.95,15.76-25.26,29.72-25.26h75.78c13.95,0,23.27,11.31,20.81,25.26l-13.36,75.78Z"/>
          <path class="cls-17" d="M884.9,298.51h-126.31c-18.19,0-34.15-7.08-44.94-19.94-11.01-13.12-15.27-30.55-12-49.08l22.27-126.31c6.54-37.1,42.08-67.28,79.21-67.28h126.31c18.19,0,34.15,7.08,44.94,19.94,11.01,13.12,15.27,30.55,12,49.08l-22.27,126.31c-6.54,37.1-42.08,67.28-79.21,67.28ZM803.14,45.9c-32.51,0-63.63,26.48-69.37,59.02l-22.27,126.31c-2.75,15.57.74,30.1,9.81,40.92,8.86,10.56,22.1,16.37,37.28,16.37h126.31c32.51,0,63.63-26.48,69.36-59.02l22.27-126.31c2.75-15.57-.74-30.1-9.81-40.92-8.86-10.55-22.1-16.37-37.28-16.37h-126.31ZM870.77,235.36h-75.78c-8.18,0-15.38-3.21-20.27-9.05-4.98-5.94-6.92-13.78-5.46-22.08l13.36-75.78c2.86-16.21,18.4-29.39,34.64-29.39h75.78c8.18,0,15.38,3.21,20.27,9.05,4.98,5.94,6.92,13.78,5.46,22.08l-13.36,75.78h0c-2.86,16.21-18.4,29.39-34.64,29.39ZM817.26,109.05c-11.62,0-22.74,9.48-24.79,21.13l-13.36,75.78c-.94,5.34.22,10.28,3.27,13.92,2.96,3.53,7.44,5.48,12.61,5.48h75.78c11.62,0,22.74-9.48,24.79-21.13l13.36-75.78c.94-5.34-.22-10.28-3.27-13.92-2.96-3.53-7.44-5.48-12.61-5.48h-75.78ZM900.49,205.1h0,0Z"/>
        </g>
        <g>
          <path class="cls-13" d="M875.02,174.09l-103.19-66.33-6.13,34.75h-152.67l-11.14,63.15h60.77l-4.35,24.69h-78.94c-26.16,0-43.63-21.21-39.01-47.36l5.57-31.58c4.61-26.16,29.56-47.36,55.72-47.36h142.09l11.14-63.15h-151.57c-55.81,0-109.02,45.24-118.86,101.04l-8.91,50.52c-9.84,55.81,27.42,101.04,83.23,101.04h151.57l9.51-53.95h0l5.98-33.89h28.75l-6.13,34.75,126.58-66.33Z"/>
          <path class="cls-10" d="M710.33,298.51h-151.57c-28.2,0-52.92-10.95-69.6-30.83-17.03-20.3-23.62-47.32-18.55-76.08l8.91-50.52c10.23-58,65.76-105.18,123.79-105.18h151.57c1.48,0,2.88.65,3.83,1.79s1.35,2.63,1.09,4.08l-11.13,63.15c-.42,2.39-2.5,4.13-4.92,4.13h-142.09c-23.8,0-46.59,19.39-50.79,43.23l-5.57,31.58c-1.99,11.31.52,21.84,7.09,29.67,6.4,7.63,15.99,11.83,27,11.83h74.75l2.59-14.69h-54.81c-1.48,0-2.88-.65-3.83-1.79s-1.35-2.63-1.09-4.08l11.14-63.15c.42-2.39,2.5-4.13,4.92-4.13h148.48l5.4-30.62c.29-1.65,1.39-3.04,2.92-3.71,1.53-.67,3.3-.53,4.71.38l103.19,66.33c1.5.96,2.37,2.65,2.29,4.43s-1.1,3.38-2.67,4.21l-126.58,66.33c-1.69.89-3.73.73-5.27-.39s-2.3-3.03-1.97-4.9l5.09-28.88h-18.6l-14.76,83.71c-.42,2.39-2.5,4.13-4.92,4.13ZM603.31,45.9c-53.4,0-104.51,43.47-113.94,96.91l-8.91,50.52c-4.55,25.8,1.26,49.92,16.36,67.92,14.75,17.58,36.75,27.26,61.94,27.26h147.37l14.76-83.71c.42-2.39,2.5-4.13,4.92-4.13h28.75c1.48,0,2.88.65,3.83,1.79s1.35,2.63,1.09,4.08l-4.36,24.73,109.96-57.62-89.64-57.62-4.82,27.35c-.42,2.39-2.5,4.13-4.92,4.13h-148.48l-9.37,53.15h54.81c1.48,0,2.88.65,3.83,1.79s1.35,2.63,1.09,4.08l-4.35,24.69c-.42,2.39-2.5,4.13-4.92,4.13h-78.94c-14.02,0-26.33-5.47-34.66-15.4-8.5-10.13-11.79-23.56-9.27-37.83l5.57-31.58c5.01-28.4,32.21-51.5,60.64-51.5h137.9l9.37-53.15h-145.61Z"/>
        </g>
        <g>
          <path class="cls-13" d="M510.58,99.15c3.52,2.2,5.64,5.55,6.39,10.05.74,4.5-.17,8.95-2.72,13.35l-7.5,13.8c-2.38,4.4-5.73,7.4-10.04,9-4.32,1.6-8.24,1.3-11.75-.9-8.6-5-16.26-10.1-22.97-15.3-.34-.2-.77-.1-1.29.3-.53.4-.82.8-.89,1.2-.75,4.6-2.91,8.55-6.49,11.85-3.58,3.3-7.5,4.95-11.74,4.95h-123.98c-4.25,0-7.62-1.65-10.13-4.95-2.51-3.3-3.39-7.25-2.64-11.85.1-.6-.06-1.05-.47-1.35-.41-.3-.84-.25-1.27.15-9.37,5.4-18.67,10.4-27.9,15-4.23,2.2-8.25,2.5-12.05.9-3.8-1.6-6.17-4.6-7.12-9l-3.01-13.8c-1.13-4.4-.59-8.85,1.62-13.35,2.21-4.5,5.43-7.85,9.66-10.05,33.55-18,63.16-38.4,88.83-61.2,9.05-8,18.65-12,28.8-12h34.87c10.14,0,18.45,4,24.89,12,18.25,22.8,41.22,43.2,68.92,61.2ZM462.75,214.41c4.49,19.45,9.73,39.64,14.43,61.14.98,4.2.26,8.35-2.16,12.45-2.42,4.1-5.78,6.85-10.06,8.25l-16.65,5.4c-4.47,1.4-8.56,1-12.26-1.2-3.7-2.2-6.02-5.5-6.97-9.9-.09-.6-.28-1.7-.57-3.3-.29-1.6-.56-2.8-.8-3.6-.26-1.8-1.16-2.5-2.7-2.1-55.04,6-109.85,10.1-164.45,12.3-4.28.2-7.76-1.35-10.45-4.65-2.69-3.3-3.85-7.25-3.47-11.85l1.2-10.8c.38-4.6,2.28-8.65,5.71-12.15,3.43-3.5,7.28-5.35,11.56-5.55l21.73-.9c1.47,0,2.8-.8,3.99-2.4,6.29-9.2,14.13-21.1,23.52-35.7,1-1.6.67-2.4-.99-2.4h-49.54c-4.25,0-7.66-1.7-10.24-5.1-2.59-3.4-3.5-7.4-2.75-12l1.76-10.8c.75-4.6,2.96-8.6,6.66-12,3.69-3.4,7.65-5.1,11.9-5.1h211.99c4.24,0,7.65,1.7,10.24,5.1,2.58,3.4,3.5,7.4,2.75,12l-1.76,10.8c-.75,4.6-2.97,8.6-6.66,12-3.69,3.4-7.66,5.1-11.9,5.1h-102.68c-1.66,0-2.88.7-3.66,2.1-6.59,11-13.33,21.8-20.22,32.4-.44.4-.55.85-.36,1.35.19.5.57.75,1.12.75,30.03-2,51.98-3.7,65.87-5.1.55,0,1.02-.3,1.39-.9.37-.6.42-1.2.15-1.8l-.36-1.2c-.98-4.2-.26-8.35,2.16-12.45,2.42-4.1,5.77-6.85,10.06-8.25l21.66-5.98s9.87-2.26,11.79,6.04ZM428.99,103.95c.37,0,.67-.15.9-.45.23-.3.2-.65-.11-1.05-12.59-12.2-24.16-25.6-34.7-40.2-.91-1.2-2.02-1.2-3.32,0-15.29,14.6-31.22,28-47.77,40.2-.44.4-.59.75-.45,1.05.13.3.39.45.76.45h84.69Z"/>
          <path class="cls-11" d="M443.22,307.47c-3.43,0-6.68-.91-9.73-2.72-4.93-2.93-8.06-7.36-9.3-13.15-.02-.11-.04-.22-.06-.33-.08-.57-.26-1.61-.54-3.12-.1-.54-.19-1-.27-1.39-54.13,5.85-108.81,9.92-162.57,12.08-5.8.26-10.85-1.98-14.53-6.49-3.52-4.32-5.06-9.51-4.58-15.42,0-.05,0-.09.01-.14l1.2-10.73c.49-5.74,2.88-10.84,7.12-15.16,4.32-4.41,9.33-6.78,14.89-7.04l21.61-.9c.07-.07.16-.17.28-.32,5.42-7.92,12.12-18.06,19.96-30.19h-42.91c-5.79,0-10.71-2.45-14.22-7.08-3.43-4.51-4.68-9.83-3.7-15.83l1.76-10.8c.93-5.71,3.69-10.71,8.2-14.87,4.62-4.26,9.77-6.42,15.29-6.42h211.99c5.78,0,10.7,2.45,14.22,7.07,3.44,4.53,4.68,9.85,3.71,15.83l-1.76,10.8c-.93,5.71-3.69,10.71-8.2,14.87-4.63,4.26-9.77,6.42-15.29,6.42h-8.4c.08.27.15.55.22.84h0c1.79,7.76,3.67,15.51,5.66,23.71,2.93,12.07,5.95,24.54,8.79,37.49,1.26,5.41.34,10.83-2.74,16.06-3.05,5.16-7.36,8.68-12.81,10.46l-16.67,5.4c-2.27.71-4.48,1.06-6.62,1.06ZM434,289.64c.67,2.97,2.14,5.04,4.61,6.51,2.47,1.47,5.08,1.7,8.21.72l16.6-5.38c3.11-1.02,5.5-2.99,7.3-6.04,1.75-2.97,2.28-5.85,1.6-8.77-2.83-12.9-5.84-25.32-8.75-37.33-2-8.23-3.88-16-5.68-23.81h0c-.7-3.03-4.45-2.56-5.74-2.31l-21.39,5.9c-3.07,1.03-5.43,3-7.2,6-1.73,2.93-2.27,5.76-1.63,8.64l.24.82c.76,2.01.54,4.21-.64,6.1-1.23,1.97-3.14,3.13-5.3,3.25-13.96,1.4-36.12,3.12-65.87,5.1-2.75.15-5.13-1.4-6.12-3.93-.85-2.16-.44-4.49,1.06-6.25,6.73-10.37,13.41-21.07,19.85-31.83,1.66-2.91,4.57-4.58,7.98-4.58h102.67c2.97,0,5.75-1.24,8.51-3.78,2.87-2.64,4.54-5.63,5.11-9.12l1.76-10.8c.53-3.26-.04-5.86-1.8-8.17-1.64-2.16-3.57-3.12-6.26-3.12h-211.99c-2.97,0-5.75,1.24-8.51,3.78-2.87,2.64-4.54,5.63-5.11,9.13l-1.76,10.8c-.53,3.27.04,5.86,1.79,8.17,1.64,2.17,3.57,3.13,6.26,3.13h49.54c3.57,0,5.18,1.94,5.83,3.1.8,1.45,1.35,3.83-.59,6.95-9.44,14.69-17.38,26.74-23.64,35.88-.04.05-.07.1-.11.15-2.66,3.59-5.73,4.4-7.88,4.43l-21.65.9c-2.97.14-5.66,1.47-8.19,4.05-2.61,2.67-4.02,5.63-4.3,9.06,0,.05,0,.1-.01.15l-1.2,10.73c-.26,3.26.52,5.95,2.37,8.21,1.69,2.07,3.65,2.94,6.35,2.82,54.2-2.19,109.32-6.31,163.85-12.25,1.94-.4,3.82-.07,5.33.93,1.14.76,2.58,2.24,3.09,5.01.27.96.54,2.21.83,3.81.28,1.53.47,2.62.57,3.29ZM286.36,243.07h0s0,0,0,0ZM373.56,212.45c-5.27,8.78-10.68,17.53-16.16,26.09,23.59-1.6,41.86-3.02,54.46-4.22-.69-4.84.34-9.63,3.08-14.26,1.86-3.16,4.2-5.7,6.99-7.61h-48.36ZM415.89,233.95h0,0ZM441.56,152.45h-123.98c-5.79,0-10.67-2.39-14.11-6.92-1.94-2.55-3.16-5.38-3.66-8.47-7.51,4.21-15.02,8.19-22.41,11.87-5.44,2.83-11.08,3.2-16.22,1.03-5.29-2.23-8.78-6.57-10.06-12.56l-2.99-13.7c-1.4-5.54-.73-11.16,2-16.71,2.67-5.45,6.66-9.58,11.84-12.28,33-17.7,62.56-38.07,87.82-60.5,9.96-8.8,20.76-13.26,32.12-13.26h34.87c11.68,0,21.37,4.66,28.79,13.86,17.83,22.28,40.61,42.51,67.72,60.12,4.74,2.99,7.65,7.51,8.63,13.45.93,5.64-.18,11.23-3.3,16.62l-7.47,13.74c-2.95,5.47-7.23,9.27-12.7,11.3-5.72,2.12-11.27,1.67-16.07-1.3-6.88-4-13.25-8.12-18.98-12.28-1.39,3.64-3.63,6.9-6.7,9.72-4.52,4.16-9.61,6.27-15.13,6.27ZM303.81,124.1c1.2,0,2.4.38,3.46,1.14,1.96,1.45,2.88,3.76,2.48,6.21-.53,3.26,0,5.81,1.68,8.02,1.56,2.06,3.46,2.98,6.15,2.98h123.98c2.97,0,5.7-1.19,8.35-3.63,2.76-2.54,4.38-5.48,4.95-8.97.19-1.17.83-2.88,2.79-4.37,2.16-1.64,4.71-1.88,6.84-.65.19.11.38.24.55.37,6.5,5.04,14.05,10.06,22.42,14.93.05.03.09.06.14.08,1.37.86,3.62,1.84,7.36.45,3.17-1.17,5.59-3.36,7.38-6.69l7.51-13.81s.05-.08.07-.13c1.98-3.39,2.67-6.67,2.11-10.02-.51-3.08-1.82-5.19-4.11-6.63-.02-.01-.05-.03-.07-.04-28.02-18.21-51.6-39.16-70.1-62.27-5.49-6.81-12.36-10.12-20.99-10.12h-34.87c-8.97,0-17.3,3.52-25.49,10.75-25.83,22.94-56.04,43.76-89.78,61.86-3.35,1.74-5.8,4.3-7.54,7.85-1.68,3.43-2.1,6.67-1.26,9.9.01.06.03.12.04.18l3.01,13.8c.61,2.82,1.89,4.5,4.17,5.46,1.52.64,3.98,1.26,7.8-.73,9.07-4.52,18.26-9.45,27.39-14.71,1.08-.8,2.32-1.2,3.56-1.2ZM428.99,108.95h-84.69c-2.35,0-4.39-1.31-5.33-3.42-.8-1.76-.81-4.5,1.63-6.75.13-.12.28-.24.42-.35,16.31-12.02,32.22-25.4,47.29-39.79,2.28-2.1,4.43-2.38,5.83-2.26,1.91.17,3.65,1.18,4.92,2.85.03.03.05.07.07.1,10.32,14.29,21.8,27.6,34.12,39.53.19.18.37.38.53.6,1.65,2.21,1.68,4.99.07,7.08-1.22,1.55-2.98,2.41-4.88,2.41ZM356.9,98.95h62.33c-9.3-9.64-18.08-20.04-26.19-31.02-11.62,10.97-23.74,21.36-36.15,31.02Z"/>
        </g>
        <g>
          <path class="cls-13" d="M267.71,101.8c4.24,0,7.65,1.7,10.24,5.1,2.58,3.4,3.5,7.4,2.75,12l-2.24,13.8c-.75,4.6-2.97,8.6-6.66,12-3.69,3.4-7.66,5.1-11.9,5.1h-73.89c-1.66,0-2.44.8-2.33,2.4.51,25.2,8.65,31.29,19.22,50.29,10.56,19,26.44,35.9,47.66,50.7,3.33,2.2,5.1,5.5,5.31,9.9.2,4.4-1.18,8.4-4.17,12l-13.38,15.9c-3.42,4-7.4,6.6-11.92,7.8-4.53,1.2-8.54.6-12.02-1.8-14.88-10.6-27.96-24.35-39.23-41.25-11.28-16.9-19.94-35.65-26-56.25-.54-1.2-1.28-1.2-2.21,0-13.35,20.8-28.78,39.65-46.28,56.55-17.51,16.9-35.89,30.65-55.14,41.25-4.45,2.4-8.69,2.95-12.72,1.65-4.03-1.3-7.11-3.95-9.22-7.95l-8.21-15.9c-1.81-3.6-1.9-7.6-.26-12,1.64-4.4,4.39-7.7,8.25-9.9,26.02-14.8,47.45-31.7,64.29-50.7,16.83-19,27-25.09,35.72-50.29.63-1.6.11-2.4-1.55-2.4H47.91c-4.25,0-7.66-1.7-10.24-5.1-2.59-3.4-3.5-7.4-2.75-12l2.24-13.8c.75-4.6,2.96-8.6,6.66-12,3.69-3.4,7.65-5.1,11.9-5.1h77.21c1.66,0,2.64-.9,2.93-2.7l8.66-53.21c.75-4.6,2.96-8.6,6.66-12,3.69-3.4,7.65-5.1,11.9-5.1h21.03c4.24,0,7.65,1.7,10.24,5.1,2.58,3.4,3.5,7.4,2.75,12l-8.66,53.21c-.29,1.8.39,2.7,2.05,2.7h77.21Z"/>
          <path class="cls-9" d="M37.11,304.63c-1.98,0-3.94-.31-5.86-.93-5.3-1.71-9.37-5.2-12.11-10.37l-8.23-15.95c-2.48-4.92-2.64-10.3-.5-16.04,2.05-5.5,5.57-9.71,10.46-12.5,25.43-14.46,46.63-31.17,63.02-49.67,3.81-4.3,7.32-7.99,10.43-11.25,9.91-10.41,16.73-17.57,22.76-33.12H47.91c-5.79,0-10.71-2.45-14.22-7.08-3.43-4.51-4.68-9.84-3.71-15.83l2.24-13.8c.93-5.71,3.69-10.71,8.2-14.87,4.62-4.26,9.77-6.42,15.29-6.42h75.45l8.41-51.71c.93-5.71,3.69-10.71,8.2-14.87,4.63-4.26,9.77-6.42,15.29-6.42h21.03c5.78,0,10.7,2.45,14.22,7.07,3.44,4.53,4.68,9.85,3.71,15.83l-8.15,50.11h73.83c5.78,0,10.7,2.45,14.22,7.07,3.44,4.53,4.68,9.85,3.71,15.83l-2.24,13.8c-.93,5.71-3.69,10.71-8.21,14.87-4.62,4.26-9.77,6.42-15.29,6.42h-71.13c.73,16.22,4.95,23.02,11.73,33.91,2.04,3.29,4.36,7.01,6.78,11.35,10.13,18.23,25.64,34.71,46.1,49,4.62,3.08,7.21,7.85,7.49,13.79.26,5.67-1.52,10.86-5.31,15.43l-13.4,15.93c-4.1,4.8-8.96,7.95-14.47,9.41-5.98,1.58-11.41.74-16.14-2.51-15.39-10.97-29.01-25.28-40.56-42.59-10.05-15.06-18.16-31.77-24.17-49.76-12.51,18.49-26.84,35.58-42.69,50.88-17.74,17.12-36.64,31.26-56.2,42.03-3.66,1.97-7.27,2.96-10.8,2.96ZM128.04,153.91c-7.12,20.56-15.25,29.09-26.48,40.9-3.2,3.36-6.5,6.83-10.19,10.99-17.12,19.32-39.18,36.73-65.56,51.73-2.84,1.62-4.81,4-6.04,7.3-1.16,3.11-1.15,5.65.04,8.01l8.18,15.86c1.49,2.82,3.51,4.58,6.32,5.49,2.7.87,5.58.45,8.81-1.29,18.75-10.33,36.94-23.94,54.04-40.45,17.15-16.56,32.48-35.28,45.55-55.65.08-.12.17-.25.25-.36,2.16-2.78,4.6-2.95,5.87-2.8,1,.12,3.46.72,4.85,3.8.1.21.18.43.24.65,5.89,20.03,14.42,38.49,25.36,54.89,10.87,16.3,23.64,29.74,37.97,39.95,2.21,1.52,4.72,1.86,7.84,1.04,3.56-.94,6.64-2.98,9.4-6.22l13.35-15.87c2.16-2.6,3.14-5.41,3-8.55-.13-2.8-1.08-4.64-3.07-5.96-.03-.02-.07-.05-.1-.07-21.74-15.17-38.28-32.79-49.17-52.37-2.3-4.13-4.45-7.59-6.53-10.93-7.19-11.56-12.88-20.7-13.32-41.58-.15-2.68.9-4.41,1.82-5.39.94-1.01,2.66-2.21,5.51-2.21h73.89c2.97,0,5.75-1.24,8.51-3.78,2.87-2.64,4.54-5.63,5.11-9.13l2.24-13.8c.53-3.26-.04-5.86-1.8-8.18-1.64-2.16-3.57-3.12-6.26-3.12h-77.21c-3.04,0-4.76-1.49-5.52-2.37-.94-1.11-1.97-3.08-1.47-6.13l8.65-53.21c.53-3.26-.04-5.86-1.8-8.18-1.64-2.16-3.57-3.12-6.26-3.12h-21.03c-2.97,0-5.75,1.24-8.51,3.78-2.87,2.64-4.54,5.63-5.11,9.13l-8.66,53.21c-.68,4.19-3.77,6.9-7.87,6.9H55.71c-2.97,0-5.75,1.24-8.51,3.78-2.87,2.65-4.54,5.63-5.11,9.13l-2.24,13.8c-.53,3.27.04,5.86,1.8,8.17,1.64,2.16,3.57,3.13,6.26,3.13h73.89c3.36,0,5.04,1.73,5.75,2.76.7,1.03,1.69,3.21.5,6.35Z"/>
        </g>
      </g>
      <g>
        <g id="_生成オブジェクト" data-name="生成オブジェクト">
          <g>
            <path class="cls-16" d="M995.91,268.28c-.99,2.89-1.68,5.82-2.2,8.67h-.44c.27,2.08-1.75,5.46-1.77,7.36h-.44c-.5,3.04-1.3,6.17-2.77,9.2h-20.29c.56-3.06,1.33-6.15,2.74-9.2h3.98l2.62-7.36h4.87c.73-1.94.55-3.98,2.08-6.07.66-.9,2.02-1.66,1.64-2.61h10Z"/>
            <path class="cls-14" d="M1088.11,115.57h-1.32s-44.52.01-44.52.01h-23.41c-.33-.5.69-1.15-.01-1.59-1.31-.83,1.22-2.77,1.12-3.82h10.31s7.48,0,7.48,0c7.7.01,15.06.03,22.74.04l26.32.05c4.6,0,2.1,3.7,1.28,5.31Z"/>
            <path class="cls-8" d="M977.33,276.95l-2.62,7.36h-3.98c-1.41,3.05-2.18,6.14-2.74,9.2h-20.29l.23-.79,2.21-7.23c.15-.48.95-1.15,1.83-1.15l7.72-.03.22-.79,1.68-5.39c.17-.55,1.36-1.14,2.25-1.14l5.97-.03h7.53Z"/>
            <path class="cls-8" d="M1019.97,110.18c.1,1.05-2.43,2.99-1.12,3.82.7.45-.32,1.09.01,1.59h-21.14l-1.56.26c0-.09.04-.18.02-.26-.06-.36.15-3.46,1.64-4.48,1.15-.78,2.36-.84,3.92-.84l12.71-.02,5.52-.07Z"/>
            <path class="cls-8" d="M985.91,268.28c.38.95-.98,1.71-1.64,2.61-1.53,2.09-1.34,4.12-2.08,6.07h-12.4l.22-.79c.49-1.74.87-3.5,1.72-5.4,1.3-2.9,7.64-2.48,9.97-2.48h4.2Z"/>
            <g>
              <path class="cls-14" d="M1088.11,115.57l-77.47,151.91-.4.79c2.32,0,10-.37,9.09,2.76l-1.48,5.12c-.08.26-.09.53-.13.79,2.27,0,4.86-.2,6.96.35.34,2.18-.59,4.21-1.14,6.22-.07.26-.09.53-.13.79l7.13.03c1.43,0,1.38,1,1.21,1.67l-1.71,6.71c-.07.26-.15.53-.23.79h-41.52c1.47-3.03,2.27-6.16,2.77-9.2h.44c.02-1.9,2.04-5.28,1.77-7.36h.44c.53-2.86,1.22-5.78,2.2-8.67.84-2.45,1.66-4.91,2.51-7.58l.65-2.02.93-3.78c11.46-46.42,27.47-93,42.26-139.31h45.85Z"/>
              <path class="cls-15" d="M1073.63,123.44c.97.89-.99,2.83-1.5,3.05-.67.3-1.36.29-1.83.16-1.68-.47-.06-2.61.6-3.2.59-.52,2.31-.39,2.73-.02Z"/>
              <path class="cls-12" d="M1063.03,145.55c.87,1.14-.8,2.99-2.23,3.12-1.04.09-1.83-.5-1.55-1.29.21-.59.58-1.43,1.3-1.89s2.19-.34,2.49.06Z"/>
            </g>
            <g>
              <path class="cls-8" d="M1018.86,115.59h23.41c-14.79,46.31-30.8,92.89-42.26,139.31l-.93,3.78-.65,2.02c-.85,2.66-1.67,5.13-2.51,7.58h-14.2c.08-.26.21-.53.24-.79l14.2-151.64c0-.09.04-.18.02-.26.01.08-.02.17-.02.26l1.56-.26h21.14Z"/>
              <path class="cls-7" d="M1013.36,179.25c-.13.71-1.17,1.03-1.69,1.06-.7.05-1.78-.25-1.66-.88l4.13-21.87,7.24-36.92c.12-.63.92-1.07,1.62-1.14.61-.06,1.71.16,1.57.84l-5.06,25.74-6.16,33.17Z"/>
            </g>
          </g>
          <g>
            <line class="cls-3" x1="1068.16" y1="132.68" x2="1064.74" y2="140.02"/>
            <line class="cls-6" x1="1058.02" y1="153.95" x2="1021.94" y2="228.86"/>
            <line class="cls-2" x1="1009.96" y1="188.65" x2="1009.64" y2="189.7"/>
            <polyline class="cls-4" points="944.44 293.51 959.84 293.51 974.09 293.51 988.34 293.51 1017.48 293.51 1032.23 293.51"/>
            <path class="cls-4" d="M947.92,292.72l2.21-7.23c.15-.48.95-1.15,1.83-1.15l7.72-.03h63.71l7.13.03c1.43,0,1.38,1,1.21,1.67l-1.71,6.71"/>
            <path class="cls-4" d="M959.91,283.52l1.68-5.39c.17-.55,1.36-1.14,2.25-1.14l5.97-.03h47.91c2.27,0,4.86-.2,6.96.35.34,2.18-.59,4.21-1.14,6.22"/>
            <line class="cls-4" x1="1003.2" y1="267.49" x2="1018.84" y2="235.43"/>
            <line class="cls-4" x1="989.44" y1="267.49" x2="1006.65" y2="124.79"/>
            <path class="cls-4" d="M970.02,276.16c.49-1.74.87-3.5,1.72-5.4,1.3-2.9,7.64-2.48,9.97-2.48h28.52c2.32,0,10-.37,9.09,2.76l-1.48,5.12"/>
            <line class="cls-4" x1="1075.78" y1="117.17" x2="1075.11" y2="117.95"/>
            <line class="cls-4" x1="1007.85" y1="116.9" x2="1007.62" y2="117.69"/>
            <polyline class="cls-4" points="997.72 115.59 1018.86 115.59 1042.27 115.59 1086.79 115.59"/>
            <path class="cls-4" d="M981.95,267.49l14.2-151.64c0-.09.04-.18.02-.26-.06-.36.15-3.46,1.64-4.48,1.15-.78,2.36-.84,3.92-.84l12.71-.02,5.52-.07h10.31s7.48,0,7.48,0c7.7.01,15.06.03,22.74.04l26.32.05c4.6,0,2.1,3.7,1.28,5.31l-77.47,151.91"/>
          </g>
        </g>
        <path class="cls-13" d="M1010,62.93c3.93-18.33,33.25-33.64,44.8-32.82,0,0,3.42,20.93-10.35,33.48-9.91,9.02-34.46-.66-34.46-.66Z"/>
        <path class="cls-8" d="M1031.58,105.52c-1.15-.31-2.05-.6-2.94-.91-15.29-5.36-26.86-16.1-20.78-44.47.74-.12,17.52,15.64,37.14-.53,18.39-15.16,4.4-29.19,4.4-29.19,37.4-2.89,53.01,17.32,48.84,37.56-3.41,16.29-18.1,30.78-36.8,36.55,0,0-7.14,2.28-14.31,2.55-7.49.29-15.04-1.43-15.55-1.57Z"/>
        <path class="cls-14" d="M1018.84,94c10.26,3.29,22.27,2.78,33.52-1.33,20.88-7.62,35.52-25.13,34.39-42.41-.29-4.39-1.74-8.11-4.07-11.93,5.95,4.34,9.84,10.31,11.03,16.87,4.01,22.13-18.78,45.06-47.37,47.73-14.35,1.34-27.62-3.17-34.98-12.29,2.6,1.2,4.63,2.43,7.49,3.35Z"/>
        <path class="cls-5" d="M1097.51,68.57c4.14-20.24-10.36-37.43-33.86-39.07-27.87-1.94-55.44,18.6-57.68,42.9-1.35,14.66,7.19,27.43,22.37,32.79.88.31,1.78.6,2.92.91.99.27,1.99.52,3.25.76l.66.12c5.68,1.06,11.77,1.05,18.19-.04,1.11-.19,2.21-.4,3.56-.73l.47-.11c1.1-.27,2.19-.57,3.53-.98,18.58-5.78,33.18-20.27,36.57-36.55Z"/>
      </g>
      <rect class="cls-1" width="1112.79" height="329.5"/>
      <rect class="cls-1" x="1" width="1112.79" height="329.5"/>
    </g>
  </g>
</svg>