<?xml version="1.0" encoding="UTF-8"?>
<svg id="_レイヤー_2" data-name="レイヤー 2" xmlns="http://www.w3.org/2000/svg" xmlns:xlink="http://www.w3.org/1999/xlink" viewBox="0 0 1141.3 401.87">
  <defs>
    <style>
      .cls-1, .cls-2, .cls-3, .cls-4, .cls-5, .cls-6 {
        fill: none;
      }

      .cls-7 {
        fill: #f8efb7;
      }

      .cls-2 {
        stroke: #f9edb5;
      }

      .cls-2, .cls-3, .cls-4, .cls-5, .cls-6 {
        stroke-linecap: round;
        stroke-linejoin: round;
      }

      .cls-2, .cls-4 {
        stroke-width: 2.89px;
      }

      .cls-8 {
        fill: #ebcb43;
      }

      .cls-3 {
        stroke: #321909;
      }

      .cls-3, .cls-6 {
        stroke-width: 2.17px;
      }

      .cls-9 {
        fill: url(#_名称未設定グラデーション_35-4);
      }

      .cls-10 {
        fill: url(#_名称未設定グラデーション_35-2);
      }

      .cls-11 {
        fill: url(#_名称未設定グラデーション_35-3);
      }

      .cls-12 {
        fill: #231815;
      }

      .cls-13 {
        fill: #331908;
      }

      .cls-4 {
        stroke: #30190b;
      }

      .cls-14 {
        fill: #fff;
      }

      .cls-5 {
        stroke: #050101;
        stroke-width: 4px;
      }

      .cls-15 {
        fill: #d3a858;
      }

      .cls-16 {
        fill: #0b318f;
      }

      .cls-6 {
        stroke: #311809;
      }

      .cls-17 {
        fill: #2e1507;
      }

      .cls-18 {
        fill: #dcbf3e;
      }

      .cls-19 {
        fill: url(#_名称未設定グラデーション_35);
      }
    </style>
    <linearGradient id="_名称未設定グラデーション_35" data-name="名称未設定グラデーション 35" x1="714.84" y1="170.2" x2="1001.71" y2="170.2" gradientUnits="userSpaceOnUse">
      <stop offset="0" stop-color="#fff"/>
      <stop offset="0" stop-color="#00afe5"/>
      <stop offset=".5" stop-color="#c4d700"/>
      <stop offset="1" stop-color="#ffd900"/>
    </linearGradient>
    <linearGradient id="_名称未設定グラデーション_35-2" data-name="名称未設定グラデーション 35" x1="483.2" x2="894.28" xlink:href="#_名称未設定グラデーション_35"/>
    <linearGradient id="_名称未設定グラデーション_35-3" data-name="名称未設定グラデーション 35" x1="255.81" y1="167.21" x2="536.48" y2="167.21" xlink:href="#_名称未設定グラデーション_35"/>
    <linearGradient id="_名称未設定グラデーション_35-4" data-name="名称未設定グラデーション 35" x1="23.17" y1="167.21" x2="300.21" y2="167.21" xlink:href="#_名称未設定グラデーション_35"/>
  </defs>
  <g id="textなし">
    <g>
      <rect class="cls-1" width="1141.3" height="401.87"/>
      <g>
        <g>
          <path class="cls-16" d="M943.7,43.9h-126.31c-34.88,0-68.14,28.27-74.29,63.15l-22.27,126.31c-6.15,34.88,17.14,63.15,52.02,63.15h126.31c34.88,0,68.14-28.27,74.29-63.15l22.27-126.31c6.15-34.88-17.14-63.15-52.02-63.15ZM914.74,208.1c-2.46,13.95-15.76,25.26-29.72,25.26h-75.78c-13.95,0-23.27-11.31-20.81-25.26l13.36-75.78c2.46-13.95,15.76-25.26,29.72-25.26h75.78c13.95,0,23.27,11.31,20.81,25.26l-13.36,75.78Z"/>
          <path class="cls-19" d="M899.15,301.51h-126.31c-18.19,0-34.15-7.08-44.94-19.94-11.01-13.12-15.27-30.55-12-49.08l22.27-126.31c6.54-37.1,42.08-67.29,79.21-67.29h126.31c18.19,0,34.15,7.08,44.94,19.94,11.01,13.12,15.27,30.55,12,49.08l-22.27,126.31c-6.54,37.1-42.08,67.29-79.21,67.29ZM817.39,48.9c-32.51,0-63.63,26.48-69.36,59.02l-22.27,126.31c-2.75,15.57.74,30.1,9.82,40.92,8.86,10.56,22.1,16.37,37.28,16.37h126.31c32.51,0,63.63-26.48,69.37-59.02l22.27-126.31c2.75-15.57-.74-30.1-9.81-40.92-8.86-10.55-22.1-16.37-37.28-16.37h-126.31ZM885.03,238.36h-75.78c-8.18,0-15.38-3.21-20.27-9.05-4.98-5.94-6.92-13.78-5.46-22.08l13.36-75.78c2.86-16.21,18.4-29.39,34.64-29.39h75.78c8.18,0,15.38,3.21,20.27,9.05,4.98,5.94,6.92,13.78,5.46,22.08l-13.36,75.78-4.92-.87,4.92.87c-2.86,16.21-18.4,29.39-34.64,29.39ZM831.52,112.05c-11.62,0-22.74,9.48-24.79,21.13l-13.36,75.78c-.94,5.34.22,10.28,3.27,13.92,2.96,3.53,7.44,5.48,12.61,5.48h75.78c11.62,0,22.74-9.48,24.79-21.13l13.36-75.78c.94-5.34-.22-10.28-3.27-13.92-2.96-3.53-7.44-5.48-12.61-5.48h-75.78Z"/>
        </g>
        <g>
          <path class="cls-16" d="M889.28,177.09l-103.19-66.33-6.13,34.75h-152.67l-11.14,63.15h60.77l-4.35,24.69h-78.94c-26.16,0-43.63-21.21-39.01-47.36l5.57-31.58c4.61-26.16,29.56-47.36,55.72-47.36h142.09l11.14-63.15h-151.57c-55.81,0-109.02,45.24-118.86,101.04l-8.91,50.52c-9.84,55.81,27.42,101.04,83.23,101.04h151.57l9.51-53.95h0l5.98-33.89h28.75l-6.13,34.75,126.58-66.33Z"/>
          <path class="cls-10" d="M724.59,301.51h-151.57c-28.2,0-52.92-10.95-69.61-30.83-17.03-20.3-23.62-47.32-18.55-76.08l8.91-50.52c10.23-58,65.76-105.18,123.79-105.18h151.57c1.48,0,2.88.65,3.83,1.79s1.35,2.63,1.09,4.08l-11.14,63.15c-.42,2.39-2.5,4.13-4.92,4.13h-142.09c-23.8,0-46.59,19.39-50.79,43.23l-5.57,31.58c-1.99,11.31.52,21.84,7.09,29.67,6.4,7.63,15.99,11.83,27,11.83h74.75l2.59-14.69h-54.81c-1.48,0-2.88-.65-3.83-1.79s-1.35-2.63-1.09-4.08l11.14-63.15c.42-2.39,2.5-4.13,4.92-4.13h148.48l5.4-30.62c.29-1.65,1.39-3.04,2.92-3.71,1.53-.67,3.3-.53,4.71.38l103.19,66.33c1.5.96,2.37,2.65,2.29,4.43s-1.1,3.38-2.67,4.21l-126.58,66.33c-1.69.89-3.73.73-5.27-.39-1.54-1.12-2.3-3.03-1.97-4.9l5.09-28.88h-18.6l-14.76,83.71c-.42,2.39-2.5,4.13-4.92,4.13ZM617.56,48.9c-53.4,0-104.51,43.47-113.94,96.91l-8.91,50.52c-4.55,25.8,1.26,49.92,16.36,67.92,14.75,17.58,36.75,27.26,61.94,27.26h147.37l14.76-83.71c.42-2.39,2.5-4.13,4.92-4.13h28.75c1.48,0,2.88.65,3.83,1.79s1.35,2.63,1.09,4.08l-4.36,24.73,109.96-57.62-89.64-57.62-4.82,27.35c-.42,2.39-2.5,4.13-4.92,4.13h-148.48l-9.37,53.15h54.81c1.48,0,2.88.65,3.83,1.79s1.35,2.63,1.09,4.08l-4.35,24.69c-.42,2.39-2.5,4.13-4.92,4.13h-78.94c-14.02,0-26.33-5.47-34.66-15.4-8.5-10.13-11.79-23.56-9.27-37.83l5.57-31.58c5.01-28.4,32.21-51.5,60.64-51.5h137.9l9.37-53.15h-145.61Z"/>
        </g>
        <g>
          <path class="cls-16" d="M524.84,102.15c3.52,2.2,5.64,5.55,6.39,10.05.74,4.5-.17,8.95-2.72,13.35l-7.5,13.8c-2.38,4.4-5.73,7.4-10.04,9-4.32,1.6-8.24,1.3-11.75-.9-8.6-5-16.26-10.1-22.97-15.3-.34-.2-.77-.1-1.29.3-.53.4-.82.8-.89,1.2-.75,4.6-2.91,8.55-6.49,11.85-3.58,3.3-7.5,4.95-11.74,4.95h-123.98c-4.25,0-7.62-1.65-10.13-4.95-2.51-3.3-3.39-7.25-2.64-11.85.1-.6-.06-1.05-.47-1.35-.41-.3-.84-.25-1.27.15-9.37,5.4-18.67,10.4-27.9,15-4.23,2.2-8.25,2.5-12.05.9-3.8-1.6-6.17-4.6-7.12-9l-3.01-13.8c-1.13-4.4-.59-8.85,1.62-13.35,2.21-4.5,5.43-7.85,9.66-10.05,33.55-18,63.16-38.4,88.83-61.2,9.05-8,18.65-12,28.8-12h34.87c10.14,0,18.45,4,24.89,12,18.25,22.8,41.22,43.2,68.92,61.2ZM477,217.41c4.49,19.45,9.73,39.64,14.43,61.14.98,4.2.26,8.35-2.16,12.45-2.42,4.1-5.78,6.85-10.06,8.25l-16.65,5.4c-4.47,1.4-8.56,1-12.26-1.2-3.7-2.2-6.02-5.5-6.97-9.9-.09-.6-.28-1.7-.57-3.3-.29-1.6-.56-2.8-.8-3.6-.26-1.8-1.16-2.5-2.7-2.1-55.04,6-109.85,10.1-164.45,12.3-4.28.2-7.76-1.35-10.45-4.65-2.69-3.3-3.85-7.25-3.47-11.85l1.2-10.8c.38-4.6,2.28-8.65,5.71-12.15,3.43-3.5,7.28-5.35,11.56-5.55l21.73-.9c1.47,0,2.8-.8,3.99-2.4,6.29-9.2,14.13-21.1,23.52-35.7,1-1.6.67-2.4-.99-2.4h-49.54c-4.25,0-7.66-1.7-10.24-5.1-2.59-3.4-3.5-7.4-2.75-12l1.76-10.8c.75-4.6,2.96-8.6,6.66-12,3.69-3.4,7.65-5.1,11.9-5.1h211.99c4.24,0,7.65,1.7,10.24,5.1,2.58,3.4,3.5,7.4,2.75,12l-1.76,10.8c-.75,4.6-2.97,8.6-6.66,12-3.69,3.4-7.66,5.1-11.9,5.1h-102.68c-1.66,0-2.88.7-3.66,2.1-6.59,11-13.33,21.8-20.22,32.4-.44.4-.55.85-.36,1.35.19.5.57.75,1.12.75,30.03-2,51.98-3.7,65.87-5.1.55,0,1.02-.3,1.39-.9.37-.6.42-1.2.15-1.8l-.36-1.2c-.98-4.2-.26-8.35,2.16-12.45,2.42-4.1,5.77-6.85,10.06-8.25l21.66-5.98s9.87-2.26,11.79,6.04ZM443.24,106.95c.37,0,.67-.15.9-.45.23-.3.2-.65-.11-1.05-12.59-12.2-24.16-25.6-34.7-40.2-.91-1.2-2.02-1.2-3.32,0-15.29,14.6-31.22,28-47.77,40.2-.44.4-.59.75-.45,1.05.13.3.39.45.76.45h84.69Z"/>
          <path class="cls-11" d="M457.48,310.47c-3.43,0-6.68-.91-9.73-2.72-4.93-2.93-8.06-7.36-9.3-13.15-.02-.1-.04-.21-.06-.32-.08-.57-.26-1.61-.54-3.13-.1-.54-.19-1-.27-1.39-54.13,5.85-108.81,9.92-162.57,12.08-5.81.26-10.85-1.98-14.53-6.49-3.53-4.32-5.07-9.51-4.58-15.42,0-.05,0-.09.01-.14l1.2-10.73c.49-5.74,2.88-10.84,7.12-15.17,4.32-4.41,9.33-6.78,14.89-7.04l21.61-.9c.07-.07.16-.17.28-.32,5.41-7.91,12.11-18.04,19.96-30.19h-42.91c-5.79,0-10.71-2.45-14.22-7.08-3.43-4.51-4.68-9.83-3.71-15.82l1.76-10.8c.93-5.71,3.69-10.71,8.2-14.87,4.63-4.26,9.77-6.42,15.29-6.42h211.99c5.78,0,10.7,2.45,14.22,7.07,3.44,4.53,4.68,9.85,3.71,15.83l-1.76,10.8c-.93,5.71-3.69,10.71-8.2,14.87-4.63,4.26-9.77,6.42-15.29,6.42h-8.4c.08.27.15.55.22.84,1.79,7.76,3.67,15.49,5.65,23.69,2.93,12.07,5.96,24.56,8.79,37.5,1.26,5.41.34,10.83-2.74,16.06-3.05,5.16-7.36,8.68-12.81,10.46l-16.67,5.4c-2.27.71-4.48,1.06-6.62,1.06ZM448.25,292.64c.67,2.97,2.14,5.04,4.61,6.51,2.47,1.47,5.09,1.7,8.21.72l16.6-5.38c3.11-1.02,5.5-2.99,7.3-6.04,1.75-2.98,2.28-5.85,1.6-8.77-2.83-12.9-5.84-25.33-8.75-37.35-1.99-8.22-3.88-15.98-5.68-23.79h0c-.7-3.03-4.45-2.56-5.74-2.31l-21.39,5.9c-3.07,1.03-5.43,2.99-7.2,6-1.73,2.93-2.27,5.76-1.63,8.64l.24.82c.76,2.01.54,4.22-.64,6.1-1.22,1.96-3.14,3.13-5.3,3.25-13.96,1.4-36.12,3.12-65.87,5.1-2.74.15-5.13-1.4-6.12-3.93-.85-2.15-.44-4.49,1.06-6.25,6.73-10.37,13.41-21.08,19.85-31.83,1.66-2.91,4.57-4.58,7.98-4.58h102.68c2.97,0,5.75-1.24,8.51-3.78,2.87-2.64,4.54-5.63,5.11-9.12l1.76-10.8c.53-3.26-.04-5.86-1.8-8.18-1.64-2.16-3.57-3.12-6.26-3.12h-211.99c-2.97,0-5.75,1.24-8.51,3.78-2.87,2.64-4.54,5.63-5.11,9.13l-1.76,10.8c-.53,3.27.04,5.86,1.8,8.17,1.64,2.17,3.57,3.13,6.26,3.13h49.54c3.57,0,5.18,1.94,5.83,3.1.8,1.45,1.35,3.83-.59,6.95-9.46,14.71-17.4,26.76-23.64,35.88-.04.05-.07.1-.11.15-2.65,3.59-5.73,4.4-7.88,4.43l-21.65.9c-2.97.14-5.66,1.47-8.19,4.05-2.61,2.67-4.02,5.63-4.3,9.06,0,.05,0,.1-.01.15l-1.2,10.73c-.26,3.26.52,5.95,2.36,8.21,1.69,2.07,3.65,2.94,6.35,2.82,54.2-2.19,109.32-6.31,163.86-12.25,1.94-.4,3.81-.07,5.33.93,1.14.76,2.58,2.24,3.09,5,.27.96.54,2.21.83,3.81.28,1.53.47,2.63.57,3.29ZM387.81,215.45c-5.26,8.78-10.68,17.53-16.16,26.09,23.59-1.6,41.86-3.02,54.46-4.22-.69-4.84.34-9.63,3.08-14.26,1.86-3.16,4.2-5.7,6.99-7.61h-48.36ZM430.14,236.95h0,0ZM455.82,155.45h-123.99c-5.79,0-10.66-2.39-14.11-6.92-1.94-2.55-3.16-5.38-3.66-8.47-7.5,4.21-15.02,8.19-22.41,11.87-5.44,2.83-11.08,3.2-16.22,1.03-5.29-2.23-8.78-6.57-10.06-12.56l-2.99-13.7c-1.4-5.54-.73-11.16,2-16.71,2.67-5.45,6.66-9.58,11.84-12.28,33-17.7,62.56-38.07,87.82-60.5,9.96-8.8,20.76-13.26,32.12-13.26h34.87c11.68,0,21.37,4.66,28.79,13.86,17.83,22.28,40.61,42.51,67.72,60.13,4.74,2.99,7.65,7.51,8.63,13.45.93,5.64-.18,11.23-3.3,16.62l-7.47,13.74c-2.95,5.47-7.23,9.27-12.7,11.3-5.72,2.12-11.27,1.67-16.07-1.3-6.88-4-13.25-8.12-18.98-12.28-1.39,3.64-3.64,6.9-6.7,9.72-4.52,4.16-9.61,6.27-15.13,6.27ZM318.06,127.1c1.2,0,2.4.38,3.46,1.15,1.96,1.44,2.87,3.75,2.48,6.2-.53,3.26,0,5.81,1.68,8.02,1.56,2.06,3.46,2.97,6.15,2.97h123.99c2.97,0,5.7-1.19,8.35-3.63,2.76-2.54,4.38-5.48,4.95-8.98.19-1.17.83-2.87,2.79-4.37,2.15-1.64,4.71-1.89,6.84-.65.19.11.38.24.55.37,6.5,5.04,14.05,10.06,22.42,14.93.05.03.09.06.14.09,1.37.86,3.62,1.84,7.36.45,3.17-1.17,5.59-3.36,7.38-6.69l7.51-13.81s.05-.08.07-.13c1.97-3.39,2.67-6.67,2.11-10.02-.51-3.08-1.82-5.19-4.11-6.63-.02-.01-.05-.03-.07-.04-28.02-18.21-51.6-39.16-70.1-62.27-5.49-6.81-12.36-10.12-20.99-10.12h-34.87c-8.97,0-17.3,3.52-25.49,10.75-25.83,22.94-56.04,43.76-89.78,61.86-3.35,1.74-5.8,4.3-7.53,7.84-1.69,3.43-2.1,6.67-1.27,9.9.01.06.03.12.04.18l3.01,13.8c.61,2.82,1.89,4.5,4.17,5.46,1.52.64,3.98,1.26,7.8-.73,9.08-4.52,18.26-9.46,27.39-14.71,1.08-.8,2.32-1.2,3.56-1.2ZM443.24,111.95h-84.69c-2.34,0-4.38-1.31-5.32-3.41-.81-1.77-.82-4.51,1.63-6.76.13-.12.28-.24.42-.35,16.31-12.02,32.22-25.4,47.29-39.79,2.28-2.1,4.43-2.38,5.83-2.26,1.91.17,3.65,1.18,4.92,2.85.03.03.05.07.07.1,10.32,14.3,21.8,27.6,34.12,39.53.19.18.37.38.53.6,1.65,2.21,1.68,4.99.07,7.08-1.22,1.55-2.98,2.41-4.87,2.41ZM371.15,101.95h62.33c-9.3-9.64-18.08-20.04-26.18-31.02-11.62,10.97-23.74,21.36-36.15,31.02Z"/>
        </g>
        <g>
          <path class="cls-16" d="M281.96,104.8c4.24,0,7.65,1.7,10.24,5.1,2.58,3.4,3.5,7.4,2.75,12l-2.24,13.8c-.75,4.6-2.97,8.6-6.66,12-3.69,3.4-7.66,5.1-11.9,5.1h-73.89c-1.66,0-2.44.8-2.33,2.4.51,25.2,8.65,31.29,19.22,50.29,10.56,19,26.44,35.9,47.66,50.7,3.33,2.2,5.1,5.5,5.31,9.9.2,4.4-1.18,8.4-4.17,12l-13.38,15.9c-3.42,4-7.4,6.6-11.92,7.8-4.53,1.2-8.54.6-12.02-1.8-14.88-10.6-27.96-24.35-39.23-41.25-11.28-16.9-19.94-35.65-26-56.25-.54-1.2-1.28-1.2-2.21,0-13.35,20.8-28.78,39.65-46.28,56.55-17.51,16.9-35.89,30.65-55.14,41.25-4.45,2.4-8.69,2.95-12.72,1.65-4.03-1.3-7.11-3.95-9.22-7.95l-8.21-15.9c-1.81-3.6-1.9-7.6-.26-12,1.64-4.4,4.39-7.7,8.25-9.9,26.02-14.8,47.45-31.7,64.29-50.7,16.83-19,27-25.09,35.72-50.29.63-1.6.11-2.4-1.55-2.4H62.16c-4.25,0-7.66-1.7-10.24-5.1-2.59-3.4-3.5-7.4-2.75-12l2.24-13.8c.75-4.6,2.96-8.6,6.66-12,3.69-3.4,7.65-5.1,11.9-5.1h77.21c1.66,0,2.64-.9,2.93-2.7l8.66-53.21c.75-4.6,2.96-8.6,6.66-12,3.69-3.4,7.65-5.1,11.9-5.1h21.03c4.24,0,7.65,1.7,10.24,5.1,2.58,3.4,3.5,7.4,2.75,12l-8.66,53.21c-.29,1.8.39,2.7,2.05,2.7h77.21Z"/>
          <path class="cls-9" d="M51.37,307.63c-1.98,0-3.94-.31-5.86-.93-5.3-1.71-9.37-5.2-12.11-10.37l-8.23-15.95c-2.48-4.92-2.64-10.3-.5-16.04,2.05-5.5,5.57-9.71,10.46-12.5,25.43-14.46,46.63-31.17,63.02-49.67,3.81-4.3,7.33-7.99,10.43-11.25,9.91-10.41,16.73-17.57,22.75-33.12H62.16c-5.79,0-10.71-2.45-14.22-7.08-3.43-4.51-4.68-9.83-3.71-15.82l2.25-13.8c.93-5.71,3.69-10.71,8.2-14.87,4.62-4.26,9.77-6.42,15.29-6.42h75.45l8.41-51.71c.93-5.71,3.69-10.71,8.2-14.87,4.62-4.26,9.77-6.42,15.29-6.42h21.03c5.78,0,10.7,2.45,14.22,7.07,3.43,4.53,4.68,9.85,3.71,15.83l-8.15,50.11h73.83c5.78,0,10.7,2.45,14.22,7.07,3.44,4.53,4.68,9.85,3.71,15.83l-2.25,13.8c-.93,5.71-3.69,10.71-8.2,14.87-4.63,4.26-9.77,6.42-15.29,6.42h-71.14c.73,16.22,4.95,23.02,11.73,33.91,2.04,3.29,4.36,7.01,6.78,11.35,10.13,18.23,25.64,34.72,46.1,49,4.61,3.08,7.2,7.85,7.49,13.79.26,5.67-1.52,10.86-5.31,15.43l-13.4,15.93c-4.1,4.8-8.96,7.95-14.47,9.41-5.98,1.58-11.41.74-16.14-2.51-15.39-10.97-29.01-25.28-40.56-42.59-10.05-15.06-18.16-31.77-24.17-49.76-12.51,18.49-26.84,35.58-42.69,50.88-17.73,17.12-36.64,31.26-56.2,42.03-3.66,1.97-7.27,2.96-10.8,2.96ZM142.3,156.91c-7.12,20.56-15.25,29.09-26.48,40.9-3.2,3.36-6.5,6.83-10.19,10.99-17.12,19.32-39.18,36.73-65.56,51.73-2.84,1.62-4.81,4-6.04,7.3-1.16,3.11-1.15,5.65.04,8.01l8.19,15.86c1.49,2.82,3.51,4.58,6.32,5.49,2.7.87,5.58.45,8.81-1.29,18.75-10.33,36.94-23.94,54.04-40.45,17.15-16.56,32.48-35.28,45.55-55.65.08-.12.17-.25.26-.36,2.16-2.78,4.6-2.94,5.87-2.8,1,.12,3.46.72,4.85,3.8.1.21.18.43.24.65,5.89,20.03,14.42,38.49,25.36,54.89,10.87,16.3,23.64,29.74,37.97,39.95,2.21,1.52,4.72,1.86,7.84,1.04,3.56-.94,6.64-2.98,9.4-6.22l13.35-15.87c2.16-2.6,3.14-5.41,3-8.55-.13-2.8-1.08-4.64-3.07-5.96-.03-.02-.07-.05-.1-.07-21.74-15.17-38.28-32.79-49.17-52.37-2.3-4.13-4.45-7.59-6.53-10.93-7.19-11.56-12.88-20.71-13.32-41.58-.15-2.68.9-4.41,1.82-5.39.94-1.01,2.66-2.21,5.51-2.21h73.89c2.97,0,5.75-1.24,8.51-3.78,2.87-2.64,4.54-5.63,5.11-9.12l2.25-13.8c.53-3.26-.04-5.86-1.8-8.17-1.64-2.16-3.57-3.12-6.26-3.12h-77.21c-3.04,0-4.76-1.49-5.52-2.37-.95-1.11-1.97-3.07-1.47-6.13l8.66-53.21c.53-3.26-.04-5.86-1.8-8.17-1.64-2.16-3.57-3.12-6.26-3.12h-21.03c-2.97,0-5.75,1.24-8.51,3.78-2.87,2.65-4.54,5.63-5.11,9.12l-8.66,53.21c-.68,4.19-3.77,6.9-7.87,6.9h-77.21c-2.97,0-5.75,1.24-8.51,3.78-2.87,2.64-4.54,5.63-5.11,9.13l-2.25,13.8c-.53,3.26.04,5.86,1.8,8.17,1.64,2.16,3.57,3.13,6.26,3.13h73.89c3.36,0,5.04,1.73,5.75,2.76.7,1.03,1.69,3.21.5,6.35Z"/>
        </g>
      </g>
      <g>
        <g id="_生成オブジェクト" data-name="生成オブジェクト">
          <g>
            <path class="cls-18" d="M1010.5,277.04c-.99,2.89-1.68,5.82-2.2,8.67h-.44c.27,2.08-1.75,5.46-1.77,7.36h-.44c-.5,3.04-1.3,6.17-2.77,9.2h-20.29c.56-3.06,1.33-6.15,2.74-9.2h3.98l2.62-7.36h4.87c.73-1.94.55-3.98,2.08-6.07.66-.9,2.02-1.66,1.64-2.61h10Z"/>
            <path class="cls-15" d="M1102.7,124.33h-1.32s-44.52.01-44.52.01h-23.41c-.33-.5.69-1.15-.01-1.59-1.31-.83,1.22-2.77,1.12-3.82h10.31s7.48,0,7.48,0c7.7.01,15.06.03,22.74.04l26.32.05c4.6,0,2.1,3.7,1.28,5.31Z"/>
            <path class="cls-8" d="M991.91,285.71l-2.62,7.36h-3.98c-1.41,3.05-2.18,6.14-2.74,9.2h-20.29l.23-.79,2.21-7.23c.15-.48.95-1.15,1.83-1.15l7.72-.03.22-.79,1.68-5.39c.17-.55,1.36-1.14,2.25-1.14l5.97-.03h7.53Z"/>
            <path class="cls-8" d="M1034.55,118.93c.1,1.05-2.43,2.99-1.12,3.82.7.45-.32,1.09.01,1.59h-21.14l-1.56.26c0-.09.04-.18.02-.26-.06-.36.15-3.46,1.64-4.48,1.15-.78,2.36-.84,3.92-.84l12.71-.02,5.52-.07Z"/>
            <path class="cls-8" d="M1000.5,277.04c.38.95-.98,1.71-1.64,2.61-1.53,2.09-1.34,4.12-2.08,6.07h-12.4l.22-.79c.49-1.74.87-3.5,1.72-5.4,1.3-2.9,7.64-2.48,9.97-2.48h4.2Z"/>
            <g>
              <path class="cls-15" d="M1102.7,124.33l-77.47,151.91-.4.79c2.32,0,10-.37,9.09,2.76l-1.48,5.12c-.08.26-.09.53-.13.79,2.27,0,4.86-.2,6.96.35.34,2.18-.59,4.21-1.14,6.22-.07.26-.09.53-.13.79l7.13.03c1.43,0,1.38,1,1.21,1.67l-1.71,6.71c-.07.26-.15.53-.23.79h-41.52c1.47-3.03,2.27-6.16,2.77-9.2h.44c.02-1.9,2.04-5.28,1.77-7.36h.44c.53-2.86,1.22-5.78,2.2-8.67.84-2.45,1.66-4.91,2.51-7.58l.65-2.02.93-3.78c11.46-46.42,27.47-93,42.26-139.31h45.85Z"/>
              <path class="cls-17" d="M1088.22,132.2c.97.89-.99,2.83-1.5,3.05-.67.3-1.36.29-1.83.16-1.68-.47-.06-2.61.6-3.2.59-.52,2.31-.39,2.73-.02Z"/>
              <path class="cls-13" d="M1077.61,154.3c.87,1.14-.8,2.99-2.23,3.12-1.04.09-1.83-.5-1.55-1.29.21-.59.58-1.43,1.3-1.89s2.19-.34,2.49.06Z"/>
            </g>
            <g>
              <path class="cls-8" d="M1033.45,124.35h23.41c-14.79,46.31-30.8,92.89-42.26,139.31l-.93,3.78-.65,2.02c-.85,2.66-1.67,5.13-2.51,7.58h-14.2c.08-.26.21-.53.24-.79l14.2-151.64c0-.09.04-.18.02-.26.01.08-.02.17-.02.26l1.56-.26h21.14Z"/>
              <path class="cls-7" d="M1027.94,188.01c-.13.71-1.17,1.03-1.69,1.06-.7.05-1.78-.25-1.66-.88l4.13-21.87,7.24-36.92c.12-.63.92-1.07,1.62-1.14.61-.06,1.71.16,1.57.84l-5.06,25.74-6.16,33.17Z"/>
            </g>
          </g>
          <g>
            <line class="cls-3" x1="1082.75" y1="141.43" x2="1079.32" y2="148.78"/>
            <line class="cls-6" x1="1072.6" y1="162.71" x2="1036.52" y2="237.62"/>
            <line class="cls-2" x1="1024.54" y1="197.41" x2="1024.22" y2="198.46"/>
            <polyline class="cls-4" points="959.02 302.27 974.43 302.27 988.68 302.27 1002.92 302.27 1032.07 302.27 1046.81 302.27"/>
            <path class="cls-4" d="M962.51,301.48l2.21-7.23c.15-.48.95-1.15,1.83-1.15l7.72-.03h63.71l7.13.03c1.43,0,1.38,1,1.21,1.67l-1.71,6.71"/>
            <path class="cls-4" d="M974.49,292.28l1.68-5.39c.17-.55,1.36-1.14,2.25-1.14l5.97-.03h47.91c2.27,0,4.86-.2,6.96.35.34,2.18-.59,4.21-1.14,6.22"/>
            <line class="cls-4" x1="1017.78" y1="276.25" x2="1033.43" y2="244.19"/>
            <line class="cls-4" x1="1004.03" y1="276.25" x2="1021.24" y2="133.55"/>
            <path class="cls-4" d="M984.6,284.92c.49-1.74.87-3.5,1.72-5.4,1.3-2.9,7.64-2.48,9.97-2.48h28.52c2.32,0,10-.37,9.09,2.76l-1.48,5.12"/>
            <line class="cls-4" x1="1090.37" y1="125.92" x2="1089.69" y2="126.71"/>
            <line class="cls-4" x1="1022.44" y1="125.66" x2="1022.2" y2="126.45"/>
            <polyline class="cls-4" points="1012.3 124.35 1033.45 124.35 1056.85 124.35 1101.37 124.35"/>
            <path class="cls-4" d="M996.54,276.25l14.2-151.64c0-.09.04-.18.02-.26-.06-.36.15-3.46,1.64-4.48,1.15-.78,2.36-.84,3.92-.84l12.71-.02,5.52-.07h10.31s7.48,0,7.48,0c7.7.01,15.06.03,22.74.04l26.32.05c4.6,0,2.1,3.7,1.28,5.31l-77.47,151.91"/>
          </g>
        </g>
        <path class="cls-14" d="M1024.63,72.83c3.93-18.33,33.25-33.64,44.8-32.82,0,0,3.42,20.93-10.35,33.48-9.91,9.02-34.46-.66-34.46-.66Z"/>
        <path class="cls-8" d="M1046.16,114.28c-1.15-.31-2.05-.6-2.94-.91-15.29-5.36-26.86-16.1-20.78-44.47.74-.12,17.52,15.64,37.14-.53,18.39-15.16,4.4-29.19,4.4-29.19,37.4-2.89,53.01,17.32,48.84,37.56-3.41,16.29-18.1,30.78-36.8,36.55,0,0-7.14,2.28-14.31,2.55-7.49.29-15.04-1.43-15.55-1.57Z"/>
        <path class="cls-15" d="M1033.43,102.76c10.26,3.29,22.27,2.78,33.52-1.33,20.88-7.62,35.52-25.13,34.39-42.41-.29-4.39-1.74-8.11-4.07-11.93,5.95,4.34,9.84,10.31,11.03,16.87,4.01,22.13-18.78,45.06-47.37,47.73-14.35,1.34-27.62-3.17-34.98-12.29,2.6,1.2,4.63,2.43,7.49,3.35Z"/>
        <path class="cls-5" d="M1112.09,77.33c4.14-20.24-10.36-37.43-33.86-39.07-27.87-1.94-55.44,18.6-57.68,42.9-1.35,14.66,7.19,27.43,22.37,32.79.88.31,1.78.6,2.92.91.99.27,1.99.52,3.25.76l.66.12c5.68,1.06,11.77,1.05,18.19-.04,1.11-.19,2.21-.4,3.56-.73l.47-.11c1.1-.27,2.19-.57,3.53-.98,18.58-5.78,33.18-20.27,36.57-36.55Z"/>
      </g>
      <g>
        <path class="cls-12" d="M81.03,327.87c-1.09-.18-6.46-1.03-12.07-1.03-11.16,0-22.51,3.38-22.51,8.93,0,9.35,31.56-1.03,31.56,14.42,0,11.04-15.99,16.23-26.79,16.23-5.49,0-14.36-1.33-19.37-3.62l1.57-5.01c5.25,1.57,11.95,3.2,17.14,3.2,7.54,0,19.37-3.44,19.37-9.6,0-3.14-3.14-3.44-18.23-4.47-6.15-.42-12.91-3.32-12.91-10.8,0-13.7,22.57-15.39,31.68-15.39,4.59,0,9.54.42,12.79,1.57l-2.23,5.55Z"/>
        <path class="cls-12" d="M95.88,366.01c-2.84,0-6.28-.72-8.21-1.39l-3.02,11.65h-7.12l10.44-37.72h6.7l-1.69,6.28c2.78-3.98,8.21-6.94,13.7-6.94,5.79,0,10.14,3.26,10.14,9.48,0,9.96-11.16,18.65-20.94,18.65ZM104.93,343.68c-7.48,0-14.24,8.75-15.81,15.69,0,0,2.53,1.39,5.61,1.39,6.22,0,14.73-5.79,14.73-12.85,0-1.87-.6-4.22-4.53-4.22Z"/>
        <path class="cls-12" d="M132.69,365.95c-6.52,0-13.46-3.2-13.46-11.22,0-9.84,10.56-17.44,20.76-17.44,6.7,0,12.92,3.26,12.92,11.35,0,10.62-10.74,17.32-20.22,17.32ZM139.09,342.17c-6.34,0-12.07,5.61-12.07,12.13,0,4.04,2.23,6.76,6.46,6.76,6.52,0,11.95-6.52,11.95-12.67,0-4.1-2.41-6.22-6.34-6.22Z"/>
        <path class="cls-12" d="M182.54,344.65c-4.34,2.78-17.62,9.47-17.62,14.12,0,1.99,2.47,2.05,3.5,2.05,4.77,0,8.57-1.33,15.03-3.92l-1.27,5.19c-4.41,2.35-11.22,4.41-15.81,4.41-3.14,0-9.6-.97-9.6-5.97,0-7.36,14.18-13.76,17.8-15.39-2.72.18-3.5.36-5.91.36-3.68,0-5.85-.42-6.28-.66-.6.97-1.69,2.59-2.35,3.26h-5.25c2.05-2.35,3.2-5.07,3.2-5.07,0,0-.72-.66-.72-2.29,0-4.29,4.89-9.05,9.35-9.05,1.69,0,2.23.66,2.23,1.69,0,2.47-3.2,6.88-3.2,6.88,0,0,.9.36,5.85.36,5.73,0,10.74-.48,12.31-.66l-1.27,4.71Z"/>
        <path class="cls-12" d="M209.58,342.53h-9.72c-2.96,10.62-4.53,15.45-4.53,16.78,0,.97.78,1.63,2.72,1.63,3.08,0,7-1.63,10.86-3.56l-.79,4.77c-1.09.84-6.04,3.8-11.89,3.8-5.25,0-7.6-2.41-7.6-6.16,0-1.57.42-3.5,4.22-17.26h-6.28l.91-4.04h6.52l2.78-9.9h7l-2.78,9.9h9.6l-1.03,4.04Z"/>
        <path class="cls-12" d="M241.56,343.08c-2.96-.42-5.07-.6-7.91-.6-1.63,0-12.49.06-12.49,3.92,0,2.11,3.14,2.53,4.35,2.66.66.06,2.78.18,6.82.36,4.1.18,8.87,1.27,8.87,6.7,0,8.57-12.07,10.14-19.37,10.14-3.8,0-8.75-.42-12.67-2.59l1.81-5.01c2.11,1.15,7.06,2.47,11.71,2.47,3.92,0,11.35-.97,11.35-4.41,0-2.05-2.66-1.33-10.32-2.05-4.34-.42-10.02-1.21-10.02-7.06,0-9.42,14.66-10.14,18.59-10.14,3.44,0,8.27.54,10.98,1.33l-1.69,4.29Z"/>
        <path class="cls-12" d="M312.53,325.76c-6.28-.84-13.28-1.69-21.67-1.69-7.79,0-25.17.72-25.17,10.32,0,6.46,7.96,6.52,13.16,6.52l-.66,3.5c-1.81.66-3.98,1.03-6.22,1.03-6.4,0-13.22-3.14-13.22-11.16,0-14.18,21.12-15.39,30.66-15.39,8.03,0,16.54.85,24.44,2.29-.85,3.08-1.27,4.59-1.33,4.59ZM294.55,338.67c-1.21,1.21-10.32,9.72-10.32,17.62,0,4.22,2.66,5.73,6.09,5.73,5.67,0,12.25-4.04,16.42-6.28l-.66,4.59c-5.01,4.47-12.19,7.36-18.77,7.36-7.12,0-10.68-3.44-10.68-10.32,0-13.76,14.24-24.02,24.68-31.44l6.76,1.39c-6.16,4.04-9.11,6.94-13.52,11.35Z"/>
        <path class="cls-12" d="M321.35,365.95c-6.52,0-13.46-3.2-13.46-11.22,0-9.84,10.56-17.44,20.76-17.44,6.7,0,12.92,3.26,12.92,11.35,0,10.62-10.74,17.32-20.22,17.32ZM327.74,342.17c-6.34,0-12.07,5.61-12.07,12.13,0,4.04,2.23,6.76,6.46,6.76,6.52,0,11.95-6.52,11.95-12.67,0-4.1-2.41-6.22-6.34-6.22Z"/>
        <path class="cls-12" d="M378.25,362.57c-1.27,1.21-5.13,3.44-9.11,3.44s-5.31-2.35-5.31-5.49c0-2.17.6-4.71,1.33-6.88-3.02,4.1-8.81,12.49-17.5,12.49-4.41,0-5.67-2.11-5.67-4.77,0-4.16,3.14-13.64,5.73-22.87h7.48l-5.01,15.93c-.24.66-.66,2.11-.66,3.38s.42,2.17,1.75,2.17c5.31,0,16.35-16.17,17.98-21.48h6.7c-4.46,15.51-5.07,18.29-5.07,19.98,0,1.15.3,1.87,1.69,1.87,2.17,0,5.37-1.87,6.4-2.59l-.72,4.83Z"/>
        <path class="cls-12" d="M406.74,344.65c-4.35,2.78-17.62,9.47-17.62,14.12,0,1.99,2.47,2.05,3.5,2.05,4.77,0,8.57-1.33,15.03-3.92l-1.27,5.19c-4.4,2.35-11.22,4.41-15.81,4.41-3.14,0-9.6-.97-9.6-5.97,0-7.36,14.18-13.76,17.8-15.39-2.71.18-3.5.36-5.91.36-3.68,0-5.85-.42-6.28-.66-.6.97-1.69,2.59-2.35,3.26h-5.25c2.05-2.35,3.2-5.07,3.2-5.07,0,0-.72-.66-.72-2.29,0-4.29,4.89-9.05,9.35-9.05,1.69,0,2.23.66,2.23,1.69,0,2.47-3.2,6.88-3.2,6.88,0,0,.91.36,5.85.36,5.73,0,10.74-.48,12.31-.66l-1.27,4.71Z"/>
        <path class="cls-12" d="M444.88,362.93s-3.44,2.78-8.03,2.78c-2.9,0-5.67-1.09-5.67-5.01,0-5.07,4.46-9.84,4.46-14.97,0-1.81-.54-2.23-1.63-2.23-5.37,0-15.15,10.62-17.5,18.1l-1.09,3.44h-6.58l7.79-26.79h6.7l-2.54,8.15c4.29-4.53,10.14-8.93,16.11-8.93,3.92,0,6.52,1.93,6.52,5.79,0,5.19-4.71,11.89-4.71,15.39,0,1.15.48,1.39,1.63,1.39,1.69,0,3.68-.54,5.31-1.27l-.78,4.16Z"/>
        <path class="cls-12" d="M484.71,362.45c-2.6,2.05-5.91,3.8-9.23,3.8s-5.01-1.69-5.01-4.95c0-.6.06-1.21.18-1.87-3.8,3.68-8.45,6.58-13.94,6.58-5.79,0-10.14-3.26-10.14-9.47,0-10.02,11.29-18.41,22.39-18.41,1.87,0,4.65.24,6.82,1.27l.3-.91h7.06c-.66,2.54-6.22,18.71-6.22,21,0,.66.42.84,1.03.84,1.75,0,5.13-1.27,7.3-2.66l-.54,4.77ZM469.5,343.38c-6.64,0-15.57,5.55-15.57,12.55,0,1.93.66,4.28,4.46,4.28,5.97,0,10.92-5.91,13.82-10.92.91-1.57,1.93-3.62,2.23-5.01.18,0-2.23-.91-4.95-.91Z"/>
        <path class="cls-12" d="M539.57,362.45c-2.05,2.11-6.52,3.8-9.23,3.8s-4.28-1.75-4.28-4.16c0-3.74,3.62-11.59,3.62-15.87,0-1.99-.78-2.29-1.57-2.29-5.61,0-14.48,16.23-16.96,21.12h-6.16c2.11-5.97,5.13-15.21,5.13-19.13,0-1.39-.36-1.75-1.03-1.75-3.56,0-13.88,10.14-16.72,18.83l-.66,2.05h-6.58l7.54-26.79h6.52l-3.14,10.5c3.74-5.01,10.5-11.04,15.93-11.04,3.32,0,5.07,2.29,5.07,5.43,0,1.75-.54,3.86-1.15,5.67,3.74-5.37,8.57-11.1,15.87-11.1,4.28,0,4.89,1.99,4.89,4.47,0,6.46-4.1,14.67-4.1,18.1,0,.72.18.97.78.97,1.57,0,5.25-1.57,6.46-2.35l-.24,3.56Z"/>
        <path class="cls-12" d="M564.55,353.58c-5.85,1.69-13.22,2.41-14.85,2.41v.48c0,3.14,3.98,3.98,7.36,3.98,5.31,0,11.65-2.11,16.29-4.65l-1.15,5.91c-4.29,2.35-10.32,4.1-15.99,4.1-6.88,0-14-2.53-14-10.5,0-10.26,11.83-17.62,22.57-17.62,4.53,0,10.56,1.33,10.56,6.64s-6.16,7.91-10.8,9.23ZM563.35,342.53c-5.49,0-11.83,3.86-13.34,8.99,3.08,0,17.56-2.23,17.56-6.76,0-1.99-2.84-2.23-4.22-2.23Z"/>
        <path class="cls-12" d="M612.95,362.93s-3.44,2.78-8.03,2.78c-2.9,0-5.67-1.09-5.67-5.01,0-5.07,4.47-9.84,4.47-14.97,0-1.81-.54-2.23-1.63-2.23-5.37,0-15.15,10.62-17.5,18.1l-1.09,3.44h-6.58l7.79-26.79h6.7l-2.53,8.15c4.28-4.53,10.14-8.93,16.11-8.93,3.92,0,6.52,1.93,6.52,5.79,0,5.19-4.71,11.89-4.71,15.39,0,1.15.48,1.39,1.63,1.39,1.69,0,3.68-.54,5.31-1.27l-.78,4.16Z"/>
        <path class="cls-12" d="M638.84,342.53h-9.72c-2.96,10.62-4.53,15.45-4.53,16.78,0,.97.78,1.63,2.71,1.63,3.08,0,7-1.63,10.86-3.56l-.79,4.77c-1.09.84-6.03,3.8-11.89,3.8-5.25,0-7.6-2.41-7.6-6.16,0-1.57.42-3.5,4.22-17.26h-6.28l.91-4.04h6.52l2.78-9.9h7l-2.78,9.9h9.6l-1.03,4.04Z"/>
        <path class="cls-12" d="M724.9,364.02c-2.05,1.21-3.5,1.99-5.85,1.99-6.21,0-9.17-5.37-9.17-10.74,0-2.78.78-9.11,5.43-26.73l-11.17,20.16c-1.39,2.47-8.27,16.42-16.05,16.42-4.41,0-6.7-4.53-6.7-11.35,0-4.41.96-11.16,3.14-23.23-5.79,12.37-10.56,20.64-11.41,21.97-2.17,3.26-12.07,17.98-22.15,17.98l-1.57-5.01c9.72-1.75,16.96-11.89,33.25-44.84h10.68c-2.59,10.14-4.83,24.38-4.83,31.32,0,1.63.12,4.83,1.87,4.83,1.09,0,2.11-1.33,4.53-5.61,16.05-28.12,15.63-26.31,18.41-30.9h11.22c-4.29,17.5-7.42,26.25-7.42,33.67,0,1.75.18,6.28,3.32,6.28,1.99,0,4.65-1.75,5.37-2.23l-.91,6.03Z"/>
        <path class="cls-12" d="M764.07,362.45c-2.59,2.05-5.91,3.8-9.23,3.8s-5.01-1.69-5.01-4.95c0-.6.06-1.21.18-1.87-3.8,3.68-8.45,6.58-13.94,6.58-5.79,0-10.14-3.26-10.14-9.47,0-10.02,11.29-18.41,22.39-18.41,1.87,0,4.65.24,6.82,1.27l.3-.91h7.06c-.66,2.54-6.22,18.71-6.22,21,0,.66.42.84,1.03.84,1.75,0,5.13-1.27,7.3-2.66l-.54,4.77ZM748.86,343.38c-6.64,0-15.57,5.55-15.57,12.55,0,1.93.66,4.28,4.47,4.28,5.97,0,10.92-5.91,13.82-10.92.91-1.57,1.93-3.62,2.23-5.01.18,0-2.23-.91-4.95-.91Z"/>
        <path class="cls-12" d="M800.52,362.93s-3.44,2.78-8.03,2.78c-2.9,0-5.67-1.09-5.67-5.01,0-5.07,4.47-9.84,4.47-14.97,0-1.81-.54-2.23-1.63-2.23-5.37,0-15.15,10.62-17.5,18.1l-1.09,3.44h-6.58l7.79-26.79h6.7l-2.53,8.15c4.28-4.53,10.14-8.93,16.11-8.93,3.92,0,6.52,1.93,6.52,5.79,0,5.19-4.71,11.89-4.71,15.39,0,1.15.48,1.39,1.63,1.39,1.69,0,3.68-.54,5.31-1.27l-.78,4.16Z"/>
        <path class="cls-12" d="M840.35,362.45c-2.59,2.05-5.91,3.8-9.23,3.8s-5.01-1.69-5.01-4.95c0-.6.06-1.21.18-1.87-3.8,3.68-8.45,6.58-13.94,6.58-5.79,0-10.14-3.26-10.14-9.47,0-10.02,11.29-18.41,22.39-18.41,1.87,0,4.65.24,6.82,1.27l.3-.91h7.06c-.66,2.54-6.22,18.71-6.22,21,0,.66.42.84,1.03.84,1.75,0,5.13-1.27,7.3-2.66l-.54,4.77ZM825.14,343.38c-6.64,0-15.57,5.55-15.57,12.55,0,1.93.66,4.28,4.47,4.28,5.97,0,10.92-5.91,13.82-10.92.91-1.57,1.93-3.62,2.23-5.01.18,0-2.23-.91-4.95-.91Z"/>
        <path class="cls-12" d="M870.46,362.63c-2.9,8.57-9.78,16.29-19.43,16.29-4.53,0-10.32-2.29-10.32-7.66,0-.78.12-1.51.36-2.23h6.76c-.18.54-.24,1.09-.24,1.51,0,2.23,1.87,3.14,4.16,3.14,7.06,0,10.86-8.45,12.85-14.06-3.8,3.68-8.15,6.4-13.52,6.4-5.85,0-10.2-3.26-10.2-9.47,0-10.02,11.41-18.41,22.21-18.41,1.81,0,5.07.24,7.12,1.21l.18-.85h7.06c-1.87,6.28-5.31,19.19-7,24.14ZM863.83,343.38c-6.64,0-15.57,5.55-15.57,12.55,0,1.87.66,4.28,4.41,4.28,5.97,0,11.04-6.03,13.88-10.92,1.87-3.2,2.23-5.01,2.23-5.01,0,0-2.29-.91-4.95-.91Z"/>
        <path class="cls-12" d="M901.18,353.58c-5.85,1.69-13.22,2.41-14.85,2.41v.48c0,3.14,3.98,3.98,7.36,3.98,5.31,0,11.65-2.11,16.29-4.65l-1.15,5.91c-4.28,2.35-10.32,4.1-15.99,4.1-6.88,0-14-2.53-14-10.5,0-10.26,11.83-17.62,22.57-17.62,4.53,0,10.56,1.33,10.56,6.64s-6.16,7.91-10.8,9.23ZM899.98,342.53c-5.49,0-11.83,3.86-13.34,8.99,3.08,0,17.56-2.23,17.56-6.76,0-1.99-2.84-2.23-4.22-2.23Z"/>
        <path class="cls-12" d="M967.99,362.45c-2.05,2.11-6.52,3.8-9.23,3.8s-4.29-1.75-4.29-4.16c0-3.74,3.62-11.59,3.62-15.87,0-1.99-.79-2.29-1.57-2.29-5.61,0-14.48,16.23-16.96,21.12h-6.16c2.11-5.97,5.13-15.21,5.13-19.13,0-1.39-.36-1.75-1.03-1.75-3.56,0-13.88,10.14-16.72,18.83l-.66,2.05h-6.58l7.54-26.79h6.52l-3.14,10.5c3.74-5.01,10.5-11.04,15.93-11.04,3.32,0,5.07,2.29,5.07,5.43,0,1.75-.54,3.86-1.15,5.67,3.74-5.37,8.57-11.1,15.87-11.1,4.29,0,4.89,1.99,4.89,4.47,0,6.46-4.1,14.67-4.1,18.1,0,.72.18.97.79.97,1.57,0,5.25-1.57,6.46-2.35l-.24,3.56Z"/>
        <path class="cls-12" d="M992.97,353.58c-5.85,1.69-13.22,2.41-14.85,2.41v.48c0,3.14,3.98,3.98,7.36,3.98,5.31,0,11.65-2.11,16.29-4.65l-1.15,5.91c-4.28,2.35-10.32,4.1-15.99,4.1-6.88,0-14-2.53-14-10.5,0-10.26,11.83-17.62,22.57-17.62,4.53,0,10.56,1.33,10.56,6.64s-6.15,7.91-10.8,9.23ZM991.77,342.53c-5.49,0-11.83,3.86-13.34,8.99,3.08,0,17.56-2.23,17.56-6.76,0-1.99-2.84-2.23-4.22-2.23Z"/>
        <path class="cls-12" d="M1041.37,362.93s-3.44,2.78-8.03,2.78c-2.9,0-5.67-1.09-5.67-5.01,0-5.07,4.47-9.84,4.47-14.97,0-1.81-.54-2.23-1.63-2.23-5.37,0-15.15,10.62-17.5,18.1l-1.09,3.44h-6.58l7.79-26.79h6.7l-2.54,8.15c4.29-4.53,10.14-8.93,16.11-8.93,3.92,0,6.52,1.93,6.52,5.79,0,5.19-4.71,11.89-4.71,15.39,0,1.15.48,1.39,1.63,1.39,1.69,0,3.68-.54,5.31-1.27l-.78,4.16Z"/>
        <path class="cls-12" d="M1067.27,342.53h-9.72c-2.96,10.62-4.53,15.45-4.53,16.78,0,.97.79,1.63,2.72,1.63,3.08,0,7-1.63,10.86-3.56l-.78,4.77c-1.09.84-6.04,3.8-11.89,3.8-5.25,0-7.6-2.41-7.6-6.16,0-1.57.42-3.5,4.22-17.26h-6.28l.91-4.04h6.52l2.78-9.9h7l-2.78,9.9h9.59l-1.03,4.04Z"/>
      </g>
      <rect class="cls-1" x="14.26" y="3" width="1112.79" height="329.5"/>
    </g>
  </g>
</svg>